<svg width="16" height="16" viewBox="0 0 16 16" fill="none" xmlns="http://www.w3.org/2000/svg">
<path d="M1.33333 10L3.23309 11.4248C3.66178 11.7464 4.26772 11.6728 4.60705 11.2581L10 4.66669" stroke="#2B6CB0" stroke-linecap="round" fill-opacity="0"/>
<path fill-rule="evenodd" clip-rule="evenodd" d="M15.7202 4.98332C15.895 4.7696 15.8635 4.45459 15.6498 4.27972C15.4361 4.10486 15.1211 4.13636 14.9462 4.35008L9.57253 10.9179C9.39902 11.13 9.08716 11.1629 8.8732 10.9917L7.97887 10.2763C7.76324 10.1038 7.44859 10.1387 7.27609 10.3544C7.10358 10.57 7.13854 10.8846 7.35417 11.0571L8.24851 11.7726C8.89038 12.2861 9.82597 12.1873 10.3465 11.5512L15.7202 4.98332Z" fill="#2B6CB0" stroke-opacity="0"/>
</svg>
